<?xml version="1.0" encoding="utf-8"?>
<!-- Generator: Adobe Illustrator 26.1.0, SVG Export Plug-In . SVG Version: 6.00 Build 0)  -->
<svg version="1.1" id="Layer_1" xmlns="http://www.w3.org/2000/svg" xmlns:xlink="http://www.w3.org/1999/xlink" x="0px" y="0px"
	 viewBox="0 0 100 100" style="enable-background:new 0 0 100 100;" xml:space="preserve">
<style type="text/css">
	.st0{fill:none;stroke:#000000;stroke-miterlimit:10;}
	.st1{fill:#669940;}
</style>
<rect x="29.94" y="10.18" transform="matrix(0.7071 -0.7071 0.7071 0.7071 -7.6106 46.3187)" class="st0" width="44.34" height="44.34"/>
<rect x="29.94" y="42.75" transform="matrix(0.7071 -0.7071 0.7071 0.7071 -30.6425 55.8588)" class="st0" width="44.34" height="44.34"/>
<rect x="41.47" y="37.3" transform="matrix(0.7071 -0.7071 0.7071 0.7071 -18.6354 50.8853)" class="st1" width="21.27" height="21.27"/>
<g>
	<polygon points="52.3,64.45 51.26,65.49 19.02,33.38 20.06,32.35 	"/>
	<polygon points="52.09,66.35 51.05,65.32 84.16,32.35 85.2,33.38 	"/>
</g>
<g>
	<polygon points="52.3,97.03 51.26,98.06 19.02,65.96 20.06,64.92 	"/>
	<polygon points="52.09,98.92 51.05,97.89 84.16,64.92 85.2,65.95 	"/>
</g>
</svg>
