<?xml version="1.0" encoding="utf-8"?>
<!-- Generator: Adobe Illustrator 26.1.0, SVG Export Plug-In . SVG Version: 6.00 Build 0)  -->
<svg version="1.1" xmlns="http://www.w3.org/2000/svg" xmlns:xlink="http://www.w3.org/1999/xlink" x="0px" y="0px"
	 viewBox="0 0 100 100" style="enable-background:new 0 0 100 100;" xml:space="preserve">
<style type="text/css">
	.st0{fill:#FFFFFF;}
	.st1{fill:none;stroke:#FFFFFF;stroke-width:5;stroke-miterlimit:10;}
	.st2{fill:#669940;}
</style>
<g id="Layer_2">
	<g>
		<polygon class="st0" points="53.52,66.95 51.53,68.93 17.36,35.11 19.35,33.13 		"/>
		<polygon class="st0" points="51.55,68.91 49.56,66.93 83.71,33.13 85.7,35.11 		"/>
	</g>
	<g>
		<polygon class="st0" points="53.52,96.7 51.53,98.68 17.36,64.86 19.35,62.88 		"/>
		<polygon class="st0" points="51.55,98.66 49.56,96.69 83.71,62.88 85.7,64.86 		"/>
	</g>
</g>
<g id="Layer_1">
	
		<rect x="31.29" y="12.9" transform="matrix(0.7071 -0.7071 0.7071 0.7071 -8.3427 46.1459)" class="st1" width="40.48" height="40.48"/>
	
		<rect x="31.29" y="42.64" transform="matrix(0.7071 -0.7071 0.7071 0.7071 -29.3727 54.8568)" class="st1" width="40.48" height="40.48"/>
	
		<rect x="40.94" y="32.67" transform="matrix(0.7071 -0.7071 0.7071 0.7071 -15.4992 49.1102)" class="st2" width="21.19" height="21.19"/>
</g>
</svg>
