<?xml version="1.0" encoding="utf-8"?>
<!-- Generator: Adobe Illustrator 26.1.0, SVG Export Plug-In . SVG Version: 6.00 Build 0)  -->
<svg version="1.1" id="Layer_1" xmlns="http://www.w3.org/2000/svg" xmlns:xlink="http://www.w3.org/1999/xlink" x="0px" y="0px"
	 viewBox="0 0 100 100" style="enable-background:new 0 0 100 100;" xml:space="preserve">
<style type="text/css">
	.st0{fill:#FFFFFF;}
</style>
<path class="st0" d="M49,18.9c-13.1,0-23.7,10.6-23.7,23.7c0,0,0,0.1,0,0.1c0,16.5,17,31.6,22.2,35.6c0.9,0.7,2.2,0.7,3.1,0
	c5.2-4.1,22.1-19.1,22.1-35.6C72.8,29.7,62.2,19,49,18.9C49.1,18.9,49,18.9,49,18.9z M49,52.6c-5.5,0-10-4.5-10-10s4.5-10,10-10
	s10,4.5,10,10C59,48.2,54.5,52.6,49,52.6C49,52.6,49,52.6,49,52.6z"/>
</svg>
