<?xml version="1.0" encoding="utf-8"?>
<!-- Generator: Adobe Illustrator 26.1.0, SVG Export Plug-In . SVG Version: 6.00 Build 0)  -->
<svg version="1.1" id="Layer_1" xmlns="http://www.w3.org/2000/svg" xmlns:xlink="http://www.w3.org/1999/xlink" x="0px" y="0px"
	 viewBox="0 0 48 48" style="enable-background:new 0 0 48 48;" xml:space="preserve">
<style type="text/css">
	.st0{fill:#FFFFFF;}
</style>
<desc>Created with Sketch.</desc>
<g id="_xD83D__xDD0D_-System-Icons">
	<g id="ic_fluent_person_48_filled">
		<path id="_xD83C__xDFA8_-Color" class="st0" d="M35.8,28c2.3,0,4.1,1.8,4.2,4l0,0.2V33c0,3.8-1.9,6.6-4.9,8.4
			C32.2,43.2,28.2,44,24,44s-8.2-0.8-11.1-2.6c-2.9-1.8-4.8-4.5-4.9-8L8,33v-0.8c0-2.3,1.8-4.1,4-4.2l0.2,0H35.8z M24,4
			c5.5,0,10,4.5,10,10c0,5.5-4.5,10-10,10s-10-4.5-10-10C14,8.5,18.5,4,24,4z"/>
	</g>
</g>
</svg>
